<?xml version="1.0" encoding="UTF-8"?>
<svg version="1.1" xmlns="http://www.w3.org/2000/svg" width="247" height="53">
<path d="M0 0 C0.12489723 4.37409304 0.21493781 8.7472039 0.2746582 13.12255859 C0.29958838 14.60646679 0.33354625 16.09025495 0.37719727 17.57373047 C0.66412211 27.58571972 0.1899387 35.79919635 -6.52294922 43.81958008 C-13.24511598 50.35343152 -22.04383912 51.35031465 -31.0546875 51.26367188 C-32.06789062 51.23853516 -33.08109375 51.21339844 -34.125 51.1875 C-35.176875 51.17396484 -36.22875 51.16042969 -37.3125 51.14648438 C-39.87555954 51.11153356 -42.43748913 51.06247682 -45 51 C-40.56695142 36.90044272 -18.17625072 0 0 0 Z " fill="#3FB859" transform="translate(247,1)"/>
<path d="M0 0 C3.96 0 7.92 0 12 0 C12.33 4.95 12.66 9.9 13 15 C14.65 14.01 16.3 13.02 18 12 C22.46933669 11.28769947 26.65710994 11.54284594 30.9375 13 C34.77609405 16.72227302 35.86011164 21.08576823 36.23950195 26.27734375 C36.29468263 30.02257457 36.26171215 33.75514053 36.1875 37.5 C36.16719727 39.4490625 36.16719727 39.4490625 36.14648438 41.4375 C36.11132614 44.62518009 36.05752579 47.81264511 36 51 C32.04 51 28.08 51 24 51 C23.93941406 49.49308594 23.87882812 47.98617187 23.81640625 46.43359375 C23.7319539 44.43488809 23.64730828 42.43619059 23.5625 40.4375 C23.52318359 39.44685547 23.48386719 38.45621094 23.44335938 37.43554688 C23.21827654 32.22401363 22.85894761 27.14646762 22 22 C18.56769552 22.26393501 18.56769552 22.26393501 15 23 C12.74129892 26.38805161 12.70740587 27.77350741 12.5859375 31.76171875 C12.52792969 33.43911133 12.52792969 33.43911133 12.46875 35.15039062 C12.4378125 36.31763672 12.406875 37.48488281 12.375 38.6875 C12.31699219 40.45577148 12.31699219 40.45577148 12.2578125 42.25976562 C12.16345943 45.17291668 12.08063758 48.08643703 12 51 C8.04 51 4.08 51 0 51 C0 34.17 0 17.34 0 0 Z " fill="#1C2123" transform="translate(151,1)"/>
<path d="M0 0 C12.21 0 24.42 0 37 0 C37 3.63 37 7.26 37 11 C28.75 11 20.5 11 12 11 C12 13.64 12 16.28 12 19 C19.92 19 27.84 19 36 19 C36 22.63 36 26.26 36 30 C28.08 30 20.16 30 12 30 C12 36.93 12 43.86 12 51 C8.04 51 4.08 51 0 51 C0 34.17 0 17.34 0 0 Z " fill="#1C2123" transform="translate(0,1)"/>
<path d="M0 0 C4.26421817 3.22416496 7.85431792 6.81295376 9.5625 11.9375 C9.5625 15.2375 9.5625 18.5375 9.5625 21.9375 C0.6525 21.9375 -8.2575 21.9375 -17.4375 21.9375 C-15.15400143 26.840755 -15.15400143 26.840755 -12.5703125 27.75 C-8.13298095 28.23233465 -8.13298095 28.23233465 -4.125 26.5 C0.16659948 24.00488402 4.70893319 24.70799684 9.5625 24.9375 C8.72167681 29.12353371 6.73503808 32.11160504 3.5625 34.9375 C-0.89636142 37.640804 -4.24683329 38.34664912 -9.4375 38.3125 C-10.613125 38.32023437 -11.78875 38.32796875 -13 38.3359375 C-18.44703563 37.70457655 -22.294563 35.68461394 -25.75 31.4375 C-26.24113281 30.8496875 -26.73226562 30.261875 -27.23828125 29.65625 C-30.76362389 24.60364166 -30.03314306 17.79003936 -29.4375 11.9375 C-27.59119751 6.5107511 -23.84593434 2.57418549 -18.8828125 -0.21875 C-12.76842014 -2.32850839 -6.10546751 -1.8871445 0 0 Z M-15.4375 10.3125 C-17.5385072 12.52005617 -17.5385072 12.52005617 -17.4375 13.9375 C-12.4875 13.9375 -7.5375 13.9375 -2.4375 13.9375 C-3.0975 12.2875 -3.7575 10.6375 -4.4375 8.9375 C-10.37659225 7.41731115 -10.37659225 7.41731115 -15.4375 10.3125 Z " fill="#1B2123" transform="translate(95.4375,14.0625)"/>
<path d="M0 0 C3.65541817 2.16388391 5.48542468 4.63352229 7.4375 8.375 C7.4375 9.035 7.4375 9.695 7.4375 10.375 C5.47946493 10.42889087 3.52101091 10.46774217 1.5625 10.5 C0.47195312 10.52320313 -0.61859375 10.54640625 -1.7421875 10.5703125 C-4.5625 10.375 -4.5625 10.375 -6.5625 8.375 C-9.00262949 8.13212511 -9.00262949 8.13212511 -11.6875 8.25 C-12.59757812 8.26804687 -13.50765625 8.28609375 -14.4453125 8.3046875 C-15.14398438 8.32789063 -15.84265625 8.35109375 -16.5625 8.375 C-14.16156362 11.97640457 -12.66994836 12.0203019 -8.58789062 12.86523438 C-7.04132195 13.16111092 -5.49445005 13.45540724 -3.94726562 13.74804688 C0.77595078 14.72880163 3.96214356 15.79881117 7.4375 19.375 C8.67569413 23.47651807 8.55542109 25.91117705 7.5 30.0625 C4.75147516 34.47679747 2.47516482 36.12672907 -2.5625 37.375 C-10.21493138 38.09599996 -16.83571789 38.47292474 -23.5625 34.375 C-25.70419564 32.50724217 -26.90903602 30.75793338 -28.5625 28.375 C-28.5625 27.055 -28.5625 25.735 -28.5625 24.375 C-26.79242286 24.29385894 -25.02127902 24.23574495 -23.25 24.1875 C-22.26386719 24.15269531 -21.27773437 24.11789063 -20.26171875 24.08203125 C-17.0796497 24.42740777 -16.6870438 25.15808473 -14.5625 27.375 C-12.27919899 27.73646457 -12.27919899 27.73646457 -9.875 27.5625 C-9.06675781 27.53542969 -8.25851563 27.50835937 -7.42578125 27.48046875 C-6.50345703 27.42826172 -6.50345703 27.42826172 -5.5625 27.375 C-5.5625 26.385 -5.5625 25.395 -5.5625 24.375 C-6.64789063 24.14425781 -7.73328125 23.91351563 -8.8515625 23.67578125 C-10.29707993 23.34725456 -11.74238141 23.01777667 -13.1875 22.6875 C-14.25677734 22.46416992 -14.25677734 22.46416992 -15.34765625 22.23632812 C-20.62056967 21.00275664 -23.73546943 19.24318144 -27.5625 15.375 C-28.79171437 11.39812999 -28.7966144 9.17098895 -27.625 5.1875 C-21.43961876 -3.24711078 -9.18534393 -4.08619038 0 0 Z " fill="#1B2123" transform="translate(137.5625,14.625)"/>
<path d="M0 0 C0.65597672 0.00424484 1.31195343 0.00848969 1.98780823 0.01286316 C4.05611536 0.02948096 6.12340026 0.06709637 8.19140625 0.10546875 C9.6048035 0.12053764 11.01821623 0.13422216 12.43164062 0.14648438 C15.8727206 0.17932771 19.31321344 0.2309886 22.75390625 0.29296875 C20.52998056 1.77558588 18.50224203 2.96891254 16.12890625 4.140625 C7.12688275 8.67473243 -0.80177008 13.38895889 -8.24609375 20.29296875 C-9.0453125 21.02386719 -9.84453125 21.75476563 -10.66796875 22.5078125 C-15.45244856 27.07554574 -19.30057145 31.89665359 -22.93359375 37.421875 C-23.58328125 38.34806641 -23.58328125 38.34806641 -24.24609375 39.29296875 C-24.57609375 39.29296875 -24.90609375 39.29296875 -25.24609375 39.29296875 C-26.1671055 14.95700455 -26.1671055 14.95700455 -19.66796875 7.4765625 C-13.89041537 2.07637184 -7.84863416 -0.10105538 0 0 Z " fill="#3FB859" transform="translate(222.24609375,-0.29296875)"/>
<path d="M0 0 C0 3.96 0 7.92 0 12 C-1.44375 12.226875 -2.8875 12.45375 -4.375 12.6875 C-6.84175066 12.97181614 -6.84175066 12.97181614 -9 14 C-11.87966703 18.46348389 -11.45035339 24.16406356 -11.625 29.3125 C-11.68300781 30.70952148 -11.68300781 30.70952148 -11.7421875 32.13476562 C-11.83606313 34.42298407 -11.92174509 36.71120295 -12 39 C-13.81242052 39.02687279 -15.62495233 39.04633715 -17.4375 39.0625 C-18.44683594 39.07410156 -19.45617188 39.08570313 -20.49609375 39.09765625 C-23 39 -23 39 -24 38 C-24.08858646 35.26105915 -24.11523479 32.5474673 -24.09765625 29.80859375 C-24.0962413 28.98875504 -24.09482635 28.16891632 -24.09336853 27.32423401 C-24.08775289 24.69528618 -24.07519779 22.06642227 -24.0625 19.4375 C-24.05748701 17.65950643 -24.05292376 15.88151154 -24.04882812 14.10351562 C-24.03777839 9.73564455 -24.02050331 5.36783652 -24 1 C-20.04 1 -16.08 1 -12 1 C-11.67 1.99 -11.34 2.98 -11 4 C-10.401875 3.525625 -9.80375 3.05125 -9.1875 2.5625 C-5.93690372 0.24064552 -4.03200043 0 0 0 Z " fill="#1C2123" transform="translate(64,13)"/>
</svg>
